<svg id="Layer_1" data-name="Layer 1" xmlns="http://www.w3.org/2000/svg" viewBox="0 0 1176.08 1176.18"><defs><style>.cls-1{fill:#fff;}.cls-2{fill:#fedf15;}</style></defs><title>5</title><path class="cls-1" d="M135.19,1279.37q580.69,0,1161.4.26c10.32,0,12.68-2.35,12.68-12.67q-.46-580.53-.26-1161.08c.63.45,2.15-1,2.08,1-.09,2.74,0,5.49,0,8.24q0,578.5.19,1157c0,7.72-1.74,9.46-9.46,9.45q-578.67-.33-1157.35-.32C141.44,1281.3,137.47,1283.68,135.19,1279.37Z" transform="translate(-135.19 -105.78)"/><path class="cls-2" d="M494.12,853.33c-1-5.25,3.78-6.93,6.43-9.62q91.09-92,182.39-183.72c1.4-1.41,2.61-3,5.3-6.15H555.14c-.37-.93-.73-1.86-1.09-2.79L1049.4,257.74l2.4,2.31L830,531.77h118.5l1.23,2.4L756.51,728.46l1.16,2.49H888.91l1.17,2.82L388.83,1131.19l-1.56-1.58q19.28-23.56,38.55-47.11,91.15-111,182.31-222.08a11.51,11.51,0,0,0,1.22-2.79c-1.23-5.94-6-3.24-9.07-3.26-32-.22-64.08-.11-96.12-.18C500.82,854.19,497.34,855,494.12,853.33Z" transform="translate(-135.19 -105.78)"/><path class="cls-2" d="M406,691.24C407.25,787.88,443.64,868.51,517,932c7.25,6.28,7.36,10.11,1.26,16.92-9.58,10.68-18.43,22-27.11,33.5-4.1,5.41-6.82,5.52-12.1,1Q388.6,907,356.53,793.11c-18-64.45-18.83-129.53-1.93-194,24.43-93.24,75.82-168.42,157-221.8,73.1-48.06,153.13-69.82,240.85-62.23,48.31,4.18,94.22,16.32,137.64,37.87,10.24,5.08,10.26,5.19,1.77,12.23-13.42,11.12-27,22.08-40.33,33.31-4,3.39-7.39,4.5-12.83,2.32-51.27-20.51-104.19-27.39-159.11-19.62-109.29,15.47-189.43,72.54-241.06,169.35C415.27,594.16,404.75,641.43,406,691.24Z" transform="translate(-135.19 -105.78)"/><path class="cls-2" d="M543.19,1026.26c17.7-14.42,34.17-27.7,50.46-41.21,3.41-2.83,6.18-1.48,9.44-.21,42.33,16.42,86,24.78,131.59,22.79q103.41-4.51,184.17-69c50.77-40.4,86-91.69,104.62-153.63,36.53-121.56,1.16-248.17-97-333.08-7.1-6.14-7.05-9.42-1.15-15.85,9.91-10.81,19.16-22.28,28.21-33.85,3.7-4.74,5.94-4.7,10.51-.88,56.61,47.34,96,106.1,118.85,176.26,17.06,52.36,22.56,105.94,15.56,160.24C1088,819.1,1055,890.47,998.73,950.68c-47.1,50.43-103.75,85.65-169.81,105.15-53.32,15.74-107.78,18.72-162.87,11.17C623.2,1061.13,583.19,1046.93,543.19,1026.26Z" transform="translate(-135.19 -105.78)"/></svg>