<svg id="Layer_1" data-name="Layer 1" xmlns="http://www.w3.org/2000/svg" viewBox="0 0 1369.46 707.61"><defs><style>.cls-1{fill:#fff;}.cls-2{fill:#0e0c0c;}.cls-3{fill:#f9eb1b;}.cls-4{fill:#fcec1b;}.cls-5{fill:#fbea18;}.cls-6{fill:#fceb1b;}</style></defs><title>8</title><path class="cls-1" d="M74.4,938.69q680.22,0,1360.42.15c6.33,0,7.83-1.4,7.82-7.78q-.29-349.15-.16-698.32c.39.27,1.32-.64,1.28.63,0,1.69,0,3.38,0,5.07q0,347.91.12,695.81c0,4.75-1.07,5.82-5.83,5.82q-679-.18-1357.92-.19C78.26,939.88,75.81,941.34,74.4,938.69Z" transform="translate(-74.4 -232.67)"/><path class="cls-2" d="M415,372c51.18,0,102.37.18,153.55-.1,17.14-.1,31.22,6.44,44,17,22.93,19,39.5,43,54.37,68.28,6.79,11.54,12.89,23.48,19.23,35.28.8,1.49,1.21,3.41,3.13,3.63,2.28.27,2.39-2.08,3.13-3.42,15.18-27.11,30.66-54.05,45.29-81.47,8.92-16.73,18.83-32.93,28.28-49.38a35,35,0,0,0,1.63-3.38c1.66-3.79,3.12-4.69,5.57-.31,10.57,18.93,21.38,37.72,32,56.6q19.57,34.72,39,69.5c1.55,2.75,3,5.54,4.44,8.35,2.32,4.58,4.18,4.53,6.52-.15a529.1,529.1,0,0,1,26.34-47.08c8.84-14,18.17-27.61,29.47-39.63,10.56-11.23,21.64-22.16,36-28.77,5.75-2.64,11.65-4.88,18.11-4.88q161.16,0,322.33,0c5.75,0,6.58,1.67,4.51,8.26-4.89,15.6-10.38,30.89-18.64,45.16-7.57,13.05-17,23.72-31.59,28.87-3.36,1.19-6.72,2.68-10.21,3.18-5.43.79-6.5,4.41-7.08,8.84-2.64,20.42-9.86,38.67-26.15,52.15-9,7.43-19.2,12.8-31.17,13.47-5.37.3-7.67,2.68-8.84,7.87-4.22,18.68-10.94,36.32-25.8,49.35-11.08,9.73-24,15.57-39.13,16.36-29,1.51-57.94,1.48-86.87.6-15.72-.47-25.75,6.82-33.09,18.72-15.25,24.71-27.6,51-41.21,76.64q-9.44,17.76-18.82,35.53-17.19,32.63-34.32,65.28c-8.79,16.67-18.58,32.81-26.18,50.1-.52,1.19-2,1.94-3.1,2.9a18.17,18.17,0,0,1-2.74-3.26c-11.34-22.63-22.52-45.33-33.92-67.92-9.7-19.21-19.8-38.22-29.35-57.51-3.52-7.12-6.48-14.51-11-21.11-.74-1.08-.24-3.44-2.41-3-1,.23-2,1.55-2.53,2.62-12,26.24-25.89,51.48-38.64,77.33-11.34,23-23.26,45.72-34.92,68.57-.65,1.27-.88,2.85-2.87,2.88-2.34,0-2.48-1.84-3.24-3.28q-13.81-26.29-27.67-52.56-28.46-53.83-57-107.64c-11.24-21.17-22.37-42.4-34-63.34-7.47-13.42-18-21.59-34.9-20.91-24.28,1-48.63.25-72.95.26-18.7,0-36.3-3.29-51-16-11.77-10.16-19.39-22.86-23.95-37.54-1.74-5.61-3.43-11.25-4.89-16.94-.82-3.19-3.07-3.66-5.71-3.88a57,57,0,0,1-32.54-13.24c-11.28-9.43-18.15-21.61-23.05-35.19a59.24,59.24,0,0,1-3.57-17.23c-.28-6.07-2.75-8.77-8.31-9.56-20.8-3-32.23-17.43-41.94-34.05-8.57-14.68-13.3-30.85-18.61-46.8-1.15-3.44.37-4.08,3.24-4.06,5.5,0,11,0,16.49,0H415Z" transform="translate(-74.4 -232.67)"/><path class="cls-3" d="M262.85,383.46H275c95.59,0,191.18.39,286.76-.27,20.74-.14,36.73,7.4,50.91,21.18,21,20.38,36.62,44.64,50.84,69.91,8.88,15.79,16.82,32.05,24.74,49.74l82.55-146.86L853.1,523.9c3.91-8.28,7.23-15.66,10.84-22.88,15.39-30.84,32.32-60.72,55.31-86.71,9.14-10.34,19.14-19.67,31.62-26a41.29,41.29,0,0,1,18.83-4.81q152.6,0,305.17,0c1,0,2.06.16,3.77.31-6.4,18.74-12.62,37.11-27.07,51.1-9.72,9.4-22,11.91-35.06,11.9-68.73-.05-137.48.75-206.19-.41-25.66-.44-44.14,10-60,28.11-17.73,20.17-30.65,43.39-42,67.46-18,38.11-35.61,76.41-53.39,114.62-.69,1.49-1.42,3-2.68,5.59L770.71,513.69c-27.27,49.81-54,98.64-81.41,148.66-6-12.75-11.38-24.47-16.92-36.14-16.17-34.09-30.8-68.91-48.32-102.34-12.58-24-27-46.85-48.58-64.11a57.47,57.47,0,0,0-37.39-13.09c-70.85.25-141.69-.1-212.54.24-21.37.1-37-8.45-47.34-26.91-1-1.84-2.25-3.58-3.17-5.47A192.31,192.31,0,0,1,262.85,383.46Z" transform="translate(-74.4 -232.67)"/><path class="cls-4" d="M850,831.53,770.72,674.44C744.11,727.16,718,778.9,691.33,831.68c-6.51-12.3-12.5-23.58-18.46-34.88q-43.33-82.26-86.66-164.52a129.1,129.1,0,0,0-14.14-21.7c-9.17-11.23-20.7-16.5-35.38-16.32-27.91.34-55.83.17-83.74-.16-22.92-.27-39.09-11.64-49.69-31.53-4-7.5-6.41-15.55-8.66-23.69-1.28-4.62,0-5.73,4.68-5.71,37.65.16,75.29.1,112.94.1,17.35,0,34.71-.47,52,.11,25.52.86,46.76,12,64.26,30,8.5,8.73,11.53,20.95,16.65,31.75,14.08,29.67,27.7,59.57,41.52,89.37.34.74.84,1.41,1.88,3.15,27.45-50,54.54-99.46,82.15-149.8L853,687.89c5.44-11.57,10.43-22.08,15.33-32.63,11.35-24.44,23.47-48.58,33.74-73.47,9-21.83,26.12-33.42,46.37-42.18,11.4-4.94,23.32-6.53,35.78-6.46q78.36.4,156.72,0c5.78,0,7.27,1.14,5.64,6.89-3.42,12.07-7.72,23.64-15.59,33.61-10.16,12.89-23.63,20-39.86,20.32-28.33.61-56.69.88-85,.25-17.4-.38-30.07,6.59-39.78,20.28-12.5,17.63-21.21,37.39-31.3,56.35-27.44,51.57-54.52,103.33-81.76,155C852.42,827.49,851.44,829.08,850,831.53Z" transform="translate(-74.4 -232.67)"/><path class="cls-5" d="M921.89,540.29c12.67-24.94,25.48-47.43,44.44-65.74,11.41-11,24.46-16.57,40.93-16.43,65.74.56,131.49.22,197.24.22,9.75,0,10,0,8.17,9.76C1210,482.62,1204.8,496,1194,506.77s-23.91,14.7-38.55,14.73c-57.07.1-114.15.39-171.23-.1C963,521.21,944,527.29,926.08,538,925.23,538.45,924.36,538.91,921.89,540.29Z" transform="translate(-74.4 -232.67)"/><path class="cls-6" d="M618.41,539.49c-8.37-4.63-16.45-9-25.1-12.2a92.28,92.28,0,0,0-32.86-5.78c-56.89.11-113.79-.41-170.68.22-39.59.43-57.06-25.75-61.64-58.05-.57-4.06.3-5.43,4.74-5.42,70,.14,140,0,210,.18,10.57,0,19.22,5.36,27.28,11.89C586.42,483.47,611.82,519.45,618.41,539.49Z" transform="translate(-74.4 -232.67)"/></svg>